<svg width="512" height="512" viewBox="0 0 512 512" fill="none" xmlns="http://www.w3.org/2000/svg">
<g clip-path="url(#clip0_3448_10058)">
<rect width="512" height="512" fill="#4F46E5"/>
<path fill-rule="evenodd" clip-rule="evenodd" d="M221.273 151.293C189.188 143.086 163.795 151.741 153.784 168.758L116.399 146.83C140.467 105.916 190.906 98.8331 232.033 109.353C274.161 120.129 316.692 151.163 331.144 200.125C334.264 210.695 336.275 221.622 337.214 232.666C350.096 241.238 363.067 250.722 376.061 261.036C376.735 233.56 387.492 206.13 404.534 181.538L422.752 192.241L440.569 202.547C414.547 240.096 408.517 279.414 434.721 315.56L434.594 315.601L434.656 315.655C399.086 333.897 391.593 347.566 377.451 373.365C375.45 377.015 373.316 380.908 370.951 385.091L332.645 364.927C334.511 361.16 336.647 357.257 338.5 353.871C338.703 353.502 338.902 353.138 339.096 352.782C348.081 336.346 355.125 323.645 368.943 311.368C357.162 301.221 345.535 291.906 334.119 283.44C331.621 295.446 327.88 307.144 322.95 318.207C297.238 375.904 228.183 425.79 144.609 398.472C109.909 387.13 87.1993 359.751 77.1455 329.804C67.195 300.165 68.8564 265.732 85.5993 238.375C101.083 213.075 121.905 195.48 147.104 186.232C172.034 177.083 199.556 176.713 227.802 182.773C246.645 186.817 266.234 193.806 286.29 203.411C274.816 177.143 249.271 158.455 221.273 151.293ZM294.148 256.727C266.945 240.623 241.496 229.995 218.693 225.102C196.301 220.297 177.447 221.223 162.061 226.869C146.945 232.417 133.51 243.117 122.596 260.951C113.558 275.718 111.704 296.531 118.255 316.043C124.703 335.247 138.51 350.923 158.098 357.326C215.935 376.231 264.545 342.774 283.337 300.605C289.433 286.926 293.081 271.891 294.148 256.727Z" fill="white"/>
</g>
<defs>
<clipPath id="clip0_3448_10058">
<rect width="512" height="512" fill="white"/>
</clipPath>
</defs>
</svg>
